<svg width="36" height="34" viewBox="0 0 36 34" fill="none" xmlns="http://www.w3.org/2000/svg">
<g id="ant-design:instagram-fill">
<path id="Vector" d="M17.7085 12.574C15.1699 12.574 13.0982 14.5629 13.0982 17C13.0982 19.4371 15.1699 21.426 17.7085 21.426C20.2472 21.426 22.3189 19.4371 22.3189 17C22.3189 14.5629 20.2472 12.574 17.7085 12.574ZM31.5363 17C31.5363 15.1672 31.5536 13.351 31.4463 11.5215C31.3391 9.39647 30.8342 7.51054 29.2155 5.95663C27.5934 4.3994 25.6323 3.91796 23.4188 3.81503C21.5096 3.7121 19.6177 3.7287 17.712 3.7287C15.8028 3.7287 13.9109 3.7121 12.0052 3.81503C9.79168 3.91796 7.82716 4.40273 6.20851 5.95663C4.5864 7.51386 4.08489 9.39647 3.97767 11.5215C3.87045 13.3543 3.88775 15.1705 3.88775 17C3.88775 18.8295 3.87045 20.649 3.97767 22.4785C4.08489 24.6035 4.58986 26.4894 6.20851 28.0433C7.83062 29.6006 9.79168 30.082 12.0052 30.1849C13.9144 30.2879 15.8063 30.2713 17.712 30.2713C19.6212 30.2713 21.5131 30.2879 23.4188 30.1849C25.6323 30.082 27.5969 29.5973 29.2155 28.0433C30.8376 26.4861 31.3391 24.6035 31.4463 22.4785C31.557 20.649 31.5363 18.8328 31.5363 17ZM17.7085 23.8099C13.783 23.8099 10.6148 20.7685 10.6148 17C10.6148 13.2314 13.783 10.19 17.7085 10.19C21.6341 10.19 24.8023 13.2314 24.8023 17C24.8023 20.7685 21.6341 23.8099 17.7085 23.8099ZM25.0928 11.5016C24.1762 11.5016 23.4361 10.791 23.4361 9.91112C23.4361 9.03124 24.1762 8.32069 25.0928 8.32069C26.0093 8.32069 26.7495 9.03124 26.7495 9.91112C26.7498 10.1201 26.7071 10.327 26.6239 10.5201C26.5408 10.7131 26.4187 10.8886 26.2649 11.0363C26.111 11.184 25.9282 11.3012 25.7271 11.381C25.526 11.4609 25.3104 11.5018 25.0928 11.5016Z" fill="#103A58"/>
</g>
</svg>
