<svg width="22" height="22" viewBox="0 0 22 22" fill="none" xmlns="http://www.w3.org/2000/svg">
<g id="ant-design:skype-fill">
<path id="Vector" d="M18.9858 12.4309C19.0738 11.9475 19.1211 11.4533 19.1211 10.9592C19.1211 9.86348 18.9063 8.8 18.483 7.80098C18.0748 6.83418 17.4883 5.96621 16.7428 5.2207C16.0035 4.47954 15.1272 3.88922 14.1625 3.48262C13.1613 3.05938 12.1 2.84453 11.0043 2.84453C10.4887 2.84453 9.97091 2.89395 9.46818 2.99062C8.77254 2.622 7.99744 2.42878 7.21017 2.42773C5.92755 2.42773 4.72013 2.92832 3.81349 3.83496C3.36611 4.28005 3.01139 4.80941 2.76984 5.39243C2.5283 5.97545 2.40473 6.60057 2.40626 7.23164C2.40626 8.04805 2.61681 8.85156 3.00998 9.56055C2.93048 10.0203 2.88751 10.4908 2.88751 10.9592C2.88751 12.0549 3.10236 13.1184 3.5256 14.1174C3.9338 15.0842 4.51818 15.9521 5.26369 16.6977C6.00919 17.4432 6.87716 18.0275 7.84396 18.4357C8.84513 18.859 9.90646 19.0738 11.0022 19.0738C11.4791 19.0738 11.9561 19.0309 12.4244 18.9471C13.1442 19.3531 13.9563 19.5701 14.7877 19.5701C16.0703 19.5701 17.2777 19.0717 18.1844 18.1629C19.0932 17.2563 19.5916 16.0488 19.5916 14.7662C19.5938 13.9498 19.3832 13.1441 18.9858 12.4309ZM11.0365 15.9307C8.15334 15.9307 6.86427 14.5127 6.86427 13.4514C6.86427 12.9057 7.26603 12.5254 7.82033 12.5254C9.05353 12.5254 8.73556 14.2979 11.0365 14.2979C12.216 14.2979 12.867 13.6576 12.867 13.0023C12.867 12.6092 12.6736 12.1709 11.8959 11.9797L9.33068 11.3395C7.26603 10.8217 6.89005 9.70449 6.89005 8.65605C6.89005 6.47754 8.94181 5.65898 10.869 5.65898C12.6436 5.65898 14.7361 6.64082 14.7361 7.94707C14.7361 8.50781 14.2506 8.83223 13.6963 8.83223C12.6436 8.83223 12.8369 7.37559 10.7164 7.37559C9.66369 7.37559 9.08146 7.85254 9.08146 8.53359C9.08146 9.21465 9.91291 9.43164 10.6348 9.59707L12.534 10.0182C14.6137 10.4822 15.1401 11.6961 15.1401 12.8391C15.1401 14.6072 13.7801 15.9307 11.0365 15.9307Z" fill="url(#paint0_linear_46_125)"/>
</g>
<defs>
<linearGradient id="paint0_linear_46_125" x1="10.9989" y1="2.42773" x2="10.9989" y2="19.5701" gradientUnits="userSpaceOnUse">
<stop stop-color="#5FC9F3"/>
<stop offset="1" stop-color="#55ABF5"/>
</linearGradient>
</defs>
</svg>
