<svg width="26" height="26" viewBox="0 0 26 26" fill="none" xmlns="http://www.w3.org/2000/svg">
<g id="fa-facebook-square" clip-path="url(#clip0_4_7)">
<path id="Vector" d="M20.7188 0.25C22.0358 0.25 23.1619 0.717611 24.0972 1.65283C25.0324 2.58805 25.5 3.71419 25.5 5.03125V20.9688C25.5 22.2858 25.0324 23.4119 24.0972 24.3472C23.1619 25.2824 22.0358 25.75 20.7188 25.75H17.5977V15.8721H20.9014L21.3994 12.0205H17.5977V9.56348C17.5977 8.94368 17.7277 8.47884 17.9878 8.16895C18.2479 7.85905 18.7542 7.7041 19.5068 7.7041L21.5322 7.6875V4.25098C20.835 4.15137 19.8499 4.10156 18.5771 4.10156C17.0719 4.10156 15.8683 4.54427 14.9663 5.42969C14.0643 6.3151 13.6133 7.56576 13.6133 9.18164V12.0205H10.293V15.8721H13.6133V25.75H4.78125C3.46419 25.75 2.33805 25.2824 1.40283 24.3472C0.467611 23.4119 0 22.2858 0 20.9688V5.03125C0 3.71419 0.467611 2.58805 1.40283 1.65283C2.33805 0.717611 3.46419 0.25 4.78125 0.25H20.7188Z" fill="white"/>
</g>
<defs>
<clipPath id="clip0_4_7">
<rect width="25.5" height="25.5" fill="white" transform="translate(0 0.25)"/>
</clipPath>
</defs>
</svg>
