<svg width="18" height="20" viewBox="0 0 18 20" fill="none" xmlns="http://www.w3.org/2000/svg">
<g id="fa-solid:calendar-alt" clip-path="url(#clip0_2_60)">
<path id="Vector" d="M0 18.125C0 19.1602 0.863839 20 1.92857 20H16.0714C17.1362 20 18 19.1602 18 18.125V7.5H0V18.125ZM12.8571 10.4688C12.8571 10.2109 13.0741 10 13.3393 10H14.9464C15.2116 10 15.4286 10.2109 15.4286 10.4688V12.0312C15.4286 12.2891 15.2116 12.5 14.9464 12.5H13.3393C13.0741 12.5 12.8571 12.2891 12.8571 12.0312V10.4688ZM12.8571 15.4688C12.8571 15.2109 13.0741 15 13.3393 15H14.9464C15.2116 15 15.4286 15.2109 15.4286 15.4688V17.0312C15.4286 17.2891 15.2116 17.5 14.9464 17.5H13.3393C13.0741 17.5 12.8571 17.2891 12.8571 17.0312V15.4688ZM7.71429 10.4688C7.71429 10.2109 7.93125 10 8.19643 10H9.80357C10.0687 10 10.2857 10.2109 10.2857 10.4688V12.0312C10.2857 12.2891 10.0687 12.5 9.80357 12.5H8.19643C7.93125 12.5 7.71429 12.2891 7.71429 12.0312V10.4688ZM7.71429 15.4688C7.71429 15.2109 7.93125 15 8.19643 15H9.80357C10.0687 15 10.2857 15.2109 10.2857 15.4688V17.0312C10.2857 17.2891 10.0687 17.5 9.80357 17.5H8.19643C7.93125 17.5 7.71429 17.2891 7.71429 17.0312V15.4688ZM2.57143 10.4688C2.57143 10.2109 2.78839 10 3.05357 10H4.66071C4.92589 10 5.14286 10.2109 5.14286 10.4688V12.0312C5.14286 12.2891 4.92589 12.5 4.66071 12.5H3.05357C2.78839 12.5 2.57143 12.2891 2.57143 12.0312V10.4688ZM2.57143 15.4688C2.57143 15.2109 2.78839 15 3.05357 15H4.66071C4.92589 15 5.14286 15.2109 5.14286 15.4688V17.0312C5.14286 17.2891 4.92589 17.5 4.66071 17.5H3.05357C2.78839 17.5 2.57143 17.2891 2.57143 17.0312V15.4688ZM16.0714 2.5H14.1429V0.625C14.1429 0.28125 13.8536 0 13.5 0H12.2143C11.8607 0 11.5714 0.28125 11.5714 0.625V2.5H6.42857V0.625C6.42857 0.28125 6.13929 0 5.78571 0H4.5C4.14643 0 3.85714 0.28125 3.85714 0.625V2.5H1.92857C0.863839 2.5 0 3.33984 0 4.375V6.25H18V4.375C18 3.33984 17.1362 2.5 16.0714 2.5Z" fill="white"/>
</g>
<defs>
<clipPath id="clip0_2_60">
<rect width="18" height="20" fill="white"/>
</clipPath>
</defs>
</svg>
