<svg width="33" height="38" viewBox="0 0 33 38" fill="none" xmlns="http://www.w3.org/2000/svg">
<g id="fa-solid:calendar-alt" clip-path="url(#clip0_55_959)">
<path id="Vector" d="M0 34.4375C0 36.4043 1.58371 38 3.53571 38H29.4643C31.4163 38 33 36.4043 33 34.4375V14.25H0V34.4375ZM23.5714 19.8906C23.5714 19.4008 23.9692 19 24.4554 19H27.4018C27.8879 19 28.2857 19.4008 28.2857 19.8906V22.8594C28.2857 23.3492 27.8879 23.75 27.4018 23.75H24.4554C23.9692 23.75 23.5714 23.3492 23.5714 22.8594V19.8906ZM23.5714 29.3906C23.5714 28.9008 23.9692 28.5 24.4554 28.5H27.4018C27.8879 28.5 28.2857 28.9008 28.2857 29.3906V32.3594C28.2857 32.8492 27.8879 33.25 27.4018 33.25H24.4554C23.9692 33.25 23.5714 32.8492 23.5714 32.3594V29.3906ZM14.1429 19.8906C14.1429 19.4008 14.5406 19 15.0268 19H17.9732C18.4594 19 18.8571 19.4008 18.8571 19.8906V22.8594C18.8571 23.3492 18.4594 23.75 17.9732 23.75H15.0268C14.5406 23.75 14.1429 23.3492 14.1429 22.8594V19.8906ZM14.1429 29.3906C14.1429 28.9008 14.5406 28.5 15.0268 28.5H17.9732C18.4594 28.5 18.8571 28.9008 18.8571 29.3906V32.3594C18.8571 32.8492 18.4594 33.25 17.9732 33.25H15.0268C14.5406 33.25 14.1429 32.8492 14.1429 32.3594V29.3906ZM4.71429 19.8906C4.71429 19.4008 5.11205 19 5.59821 19H8.54464C9.0308 19 9.42857 19.4008 9.42857 19.8906V22.8594C9.42857 23.3492 9.0308 23.75 8.54464 23.75H5.59821C5.11205 23.75 4.71429 23.3492 4.71429 22.8594V19.8906ZM4.71429 29.3906C4.71429 28.9008 5.11205 28.5 5.59821 28.5H8.54464C9.0308 28.5 9.42857 28.9008 9.42857 29.3906V32.3594C9.42857 32.8492 9.0308 33.25 8.54464 33.25H5.59821C5.11205 33.25 4.71429 32.8492 4.71429 32.3594V29.3906ZM29.4643 4.75H25.9286V1.1875C25.9286 0.534375 25.3982 0 24.75 0H22.3929C21.7446 0 21.2143 0.534375 21.2143 1.1875V4.75H11.7857V1.1875C11.7857 0.534375 11.2554 0 10.6071 0H8.25C7.60179 0 7.07143 0.534375 7.07143 1.1875V4.75H3.53571C1.58371 4.75 0 6.3457 0 8.3125V11.875H33V8.3125C33 6.3457 31.4163 4.75 29.4643 4.75Z" fill="url(#paint0_linear_55_959)"/>
</g>
<defs>
<linearGradient id="paint0_linear_55_959" x1="16.5" y1="0" x2="16.5" y2="38" gradientUnits="userSpaceOnUse">
<stop stop-color="#5FC9F3"/>
<stop offset="1" stop-color="#55ABF5"/>
</linearGradient>
<clipPath id="clip0_55_959">
<rect width="33" height="38" fill="white"/>
</clipPath>
</defs>
</svg>
