<svg width="81" height="81" viewBox="0 0 81 81" fill="none" xmlns="http://www.w3.org/2000/svg">
<g id="icomoon-free:price-tag">
<path id="Vector" d="M65.4212 13.0002H44.7962C43.38 13.0002 41.3965 13.8218 40.3962 14.8221L14.8246 40.3937C14.3425 40.8781 14.0718 41.5338 14.0718 42.2173C14.0718 42.9008 14.3425 43.5564 14.8246 44.0409L36.9587 66.1749C37.4431 66.6571 38.0988 66.9278 38.7823 66.9278C39.4658 66.9278 40.1215 66.6571 40.6059 66.1749L66.1775 40.6034C67.1812 39.5996 67.9993 37.6196 67.9993 36.2034V15.5784C67.9966 14.8954 67.7241 14.2413 67.2412 13.7584C66.7583 13.2755 66.1041 13.003 65.4212 13.0002V13.0002ZM52.5306 33.6252C51.8532 33.625 51.1825 33.4914 50.5568 33.232C49.9311 32.9725 49.3626 32.5924 48.8838 32.1133C48.405 31.6342 48.0253 31.0654 47.7663 30.4396C47.5073 29.8137 47.3741 29.1429 47.3743 28.4656C47.3745 27.7882 47.5082 27.1175 47.7676 26.4918C48.027 25.8661 48.4072 25.2976 48.8863 24.8188C49.3654 24.34 49.9341 23.9603 50.56 23.7013C51.1859 23.4423 51.8567 23.3091 52.534 23.3093C53.902 23.3098 55.2138 23.8536 56.1807 24.8213C57.1477 25.7889 57.6907 27.101 57.6903 28.469C57.6898 29.837 57.1459 31.1487 56.1783 32.1157C55.2107 33.0827 53.8986 33.6257 52.5306 33.6252Z" fill="url(#paint0_linear_47_26)"/>
</g>
<defs>
<linearGradient id="paint0_linear_47_26" x1="41.0356" y1="13.0002" x2="41.0356" y2="66.9278" gradientUnits="userSpaceOnUse">
<stop stop-color="#5FC9F3"/>
<stop offset="1" stop-color="#55ABF5"/>
</linearGradient>
</defs>
</svg>
