<svg width="31" height="32" viewBox="0 0 31 32" fill="none" xmlns="http://www.w3.org/2000/svg">
<rect opacity="0.3" width="31" height="32" rx="7" fill="black"/>
<path d="M18 6H11C10.4696 6 9.96086 6.21071 9.58579 6.58579C9.21071 6.96086 9 7.46957 9 8V22C9 22.5304 9.21071 23.0391 9.58579 23.4142C9.96086 23.7893 10.4696 24 11 24H14V27L16 26L18 27V24H21C21.5304 24 22.0391 23.7893 22.4142 23.4142C22.7893 23.0391 23 22.5304 23 22V11L18 6ZM18 19V21L16 20L14 21V19L12 18L14 17V15L16 16L18 15V17L20 18L18 19ZM17 12V7.5L21.5 12H17Z" fill="white"/>
</svg>
