<svg width="44" height="44" viewBox="0 0 44 44" fill="none" xmlns="http://www.w3.org/2000/svg">
<g id="mdi:file-document-edit">
<path id="Vector" d="M11.0002 3.66667C8.96516 3.66667 7.3335 5.29833 7.3335 7.33333V36.6667C7.3335 37.6391 7.7198 38.5718 8.40744 39.2594C9.09507 39.947 10.0277 40.3333 11.0002 40.3333H18.3335V36.8317L22.1652 33H11.0002V29.3333H25.8318L29.4985 25.6667H11.0002V22H33.1652L36.6668 18.4983V14.6667L25.6668 3.66667H11.0002ZM23.8335 6.41667L33.9168 16.5H23.8335V6.41667ZM36.9418 23.8333C36.8061 23.8304 36.6713 23.8548 36.5452 23.9052C36.4192 23.9556 36.3047 24.0309 36.2085 24.1267L34.3385 25.9967L38.1702 29.81L40.0402 27.9583C40.4252 27.555 40.4252 26.895 40.0402 26.51L37.6568 24.1267C37.5632 24.0327 37.4517 23.9583 37.3289 23.9079C37.2061 23.8576 37.0745 23.8322 36.9418 23.8333ZM33.2568 27.0783L22.0002 38.3533V42.1667H25.8135L37.0885 30.8917L33.2568 27.0783Z" fill="white"/>
</g>
</svg>
