<svg width="26" height="26" viewBox="0 0 26 26" fill="none" xmlns="http://www.w3.org/2000/svg">
<g id="simple-icons:vk" clip-path="url(#clip0_4_3)">
<path id="Vector" d="M16.6642 0.25H8.83575C1.6915 0.25 0 1.9415 0 9.08575V16.9142C0 24.0585 1.6915 25.75 8.83575 25.75H16.6642C23.8085 25.75 25.5 24.0585 25.5 16.9142V9.08575C25.5 1.9415 23.7904 0.25 16.6642 0.25ZM20.587 18.4432H18.734C18.0327 18.4432 17.816 17.8854 16.5559 16.6082C15.4583 15.5457 14.9728 15.4023 14.7029 15.4023C14.3246 15.4023 14.2163 15.5107 14.2163 16.0324V17.7058C14.2163 18.1563 14.0728 18.4262 12.8849 18.4262C10.9236 18.4262 8.74544 17.2383 7.2165 15.0241C4.913 11.7856 4.28188 9.35563 4.28188 8.852C4.28188 8.58212 4.39025 8.33031 4.91194 8.33031H6.76494C7.23244 8.33031 7.41306 8.546 7.59369 9.04962C8.51062 11.6952 10.0406 14.0168 10.6707 14.0168C10.9044 14.0168 11.0128 13.9084 11.0128 13.3156V10.5786C10.9406 9.31844 10.2744 9.21112 10.2744 8.76169C10.2744 8.54494 10.455 8.32925 10.7419 8.32925H13.6574C14.0537 8.32925 14.1971 8.54494 14.1971 9.01244V12.7025C14.1971 13.0978 14.3778 13.2422 14.4851 13.2422C14.7188 13.2422 14.9175 13.0977 15.3489 12.6664C16.6812 11.1725 17.6343 8.869 17.6343 8.869C17.7607 8.59913 17.9764 8.34731 18.445 8.34731H20.298C20.8558 8.34731 20.9823 8.63419 20.8558 9.0305C20.6221 10.1111 18.3547 13.3134 18.3547 13.3134C18.1571 13.6375 18.0848 13.7809 18.3547 14.1422C18.5523 14.4121 19.2004 14.9699 19.6329 15.4735C20.4244 16.3734 21.0354 17.1289 21.1979 17.6516C21.3786 18.1723 21.1076 18.4421 20.5859 18.4421L20.587 18.4432Z" fill="white"/>
</g>
<defs>
<clipPath id="clip0_4_3">
<rect width="25.5" height="25.5" fill="white" transform="translate(0 0.25)"/>
</clipPath>
</defs>
</svg>
