<svg width="23" height="17" viewBox="0 0 23 17" fill="none" xmlns="http://www.w3.org/2000/svg">
<g id="whh-student" clip-path="url(#clip0_2_62)">
<path id="Vector" d="M23 16.2917C23 16.4835 22.9289 16.6495 22.7866 16.7897C22.6444 16.9299 22.4759 17 22.2812 17C22.0866 17 21.9181 16.9299 21.7759 16.7897C21.6336 16.6495 21.5625 16.4835 21.5625 16.2917V6.97266L13.6338 10.8906C13.0348 11.1858 12.3236 11.3333 11.5 11.3333C10.6764 11.3333 9.96517 11.1858 9.36621 10.8906L0.875977 6.70703C0.291992 6.41189 0 6.06141 0 5.6556C0 5.24978 0.291992 4.90668 0.875977 4.6263L9.36621 0.442708C9.96517 0.147569 10.6764 0 11.5 0C12.3236 0 13.0348 0.147569 13.6338 0.442708L22.124 4.6263C22.6331 4.87717 22.9176 5.18707 22.9775 5.55599C22.9925 5.57075 23 5.60026 23 5.64453V16.2917ZM14.3525 12.3073L18.6875 10.1602V13.2812C18.6875 13.9158 17.9875 14.4581 16.5874 14.9082C15.1873 15.3583 13.4915 15.5833 11.5 15.5833C9.50846 15.5833 7.81266 15.3583 6.4126 14.9082C5.01253 14.4581 4.3125 13.9158 4.3125 13.2812V10.1602L8.64746 12.3073C9.24642 12.6024 10.1973 12.75 11.5 12.75C12.8027 12.75 13.7536 12.6024 14.3525 12.3073Z" fill="white"/>
</g>
<defs>
<clipPath id="clip0_2_62">
<rect width="23" height="17" fill="white"/>
</clipPath>
</defs>
</svg>
