<svg width="36" height="34" viewBox="0 0 36 34" fill="none" xmlns="http://www.w3.org/2000/svg">
<g id="ant-design:instagram-fill">
<path id="Vector" d="M17.7083 12.574C15.1696 12.574 13.0979 14.5629 13.0979 17C13.0979 19.4371 15.1696 21.426 17.7083 21.426C20.247 21.426 22.3187 19.4371 22.3187 17C22.3187 14.5629 20.247 12.574 17.7083 12.574ZM31.536 17C31.536 15.1672 31.5533 13.351 31.4461 11.5215C31.3389 9.39648 30.8339 7.51055 29.2153 5.95664C27.5932 4.39941 25.6321 3.91797 23.4185 3.81504C21.5094 3.71211 19.6175 3.72871 17.7118 3.72871C15.8026 3.72871 13.9107 3.71211 12.005 3.81504C9.79143 3.91797 7.82692 4.40273 6.20826 5.95664C4.58615 7.51387 4.08465 9.39648 3.97743 11.5215C3.87021 13.3543 3.8875 15.1705 3.8875 17C3.8875 18.8295 3.87021 20.649 3.97743 22.4785C4.08465 24.6035 4.58961 26.4894 6.20826 28.0434C7.83037 29.6006 9.79143 30.082 12.005 30.185C13.9142 30.2879 15.806 30.2713 17.7118 30.2713C19.6209 30.2713 21.5128 30.2879 23.4185 30.185C25.6321 30.082 27.5966 29.5973 29.2153 28.0434C30.8374 26.4861 31.3389 24.6035 31.4461 22.4785C31.5568 20.649 31.536 18.8328 31.536 17ZM17.7083 23.81C13.7827 23.81 10.6146 20.7686 10.6146 17C10.6146 13.2314 13.7827 10.19 17.7083 10.19C21.6339 10.19 24.802 13.2314 24.802 17C24.802 20.7686 21.6339 23.81 17.7083 23.81ZM25.0925 11.5016C24.176 11.5016 23.4358 10.791 23.4358 9.91113C23.4358 9.03125 24.176 8.3207 25.0925 8.3207C26.0091 8.3207 26.7492 9.03125 26.7492 9.91113C26.7495 10.1201 26.7068 10.327 26.6237 10.5201C26.5405 10.7132 26.4185 10.8886 26.2646 11.0363C26.1107 11.1841 25.928 11.3012 25.7269 11.381C25.5257 11.4609 25.3102 11.5018 25.0925 11.5016Z" fill="white"/>
</g>
</svg>
