<svg width="44" height="44" viewBox="0 0 44 44" fill="none" xmlns="http://www.w3.org/2000/svg">
<g id="ant-design:gift-fill">
<path id="Vector" d="M6.875 38.4141C6.875 39.1746 7.48945 39.7891 8.25 39.7891H20.5391V23.6328H6.875V38.4141ZM23.4609 39.7891H35.75C36.5105 39.7891 37.125 39.1746 37.125 38.4141V23.6328H23.4609V39.7891ZM37.8125 13.3203H31.4703C32.0547 12.4008 32.3984 11.3094 32.3984 10.1406C32.3984 6.8707 29.7387 4.21094 26.4688 4.21094C24.6898 4.21094 23.0871 5.00156 22 6.24766C20.9129 5.00156 19.3102 4.21094 17.5312 4.21094C14.2613 4.21094 11.6016 6.8707 11.6016 10.1406C11.6016 11.3094 11.941 12.4008 12.5297 13.3203H6.1875C5.42695 13.3203 4.8125 13.9348 4.8125 14.6953V20.7109H20.5391V13.3203H23.4609V20.7109H39.1875V14.6953C39.1875 13.9348 38.573 13.3203 37.8125 13.3203ZM20.5391 13.1484H17.5312C15.8727 13.1484 14.5234 11.7992 14.5234 10.1406C14.5234 8.48203 15.8727 7.13281 17.5312 7.13281C19.1898 7.13281 20.5391 8.48203 20.5391 10.1406V13.1484ZM26.4688 13.1484H23.4609V10.1406C23.4609 8.48203 24.8102 7.13281 26.4688 7.13281C28.1273 7.13281 29.4766 8.48203 29.4766 10.1406C29.4766 11.7992 28.1273 13.1484 26.4688 13.1484Z" fill="white"/>
</g>
</svg>
