<svg width="80" height="76" viewBox="0 0 80 76" fill="none" xmlns="http://www.w3.org/2000/svg">
<g id="entypo:list">
<path id="Vector" d="M60.2398 32.999H33.5598C31.0206 32.999 30.7998 35.0552 30.7998 37.599C30.7998 40.1428 31.0206 42.199 33.5598 42.199H60.2398C62.779 42.199 62.9998 40.1428 62.9998 37.599C62.9998 35.0552 62.779 32.999 60.2398 32.999ZM69.4398 55.999H33.5598C31.0206 55.999 30.7998 58.0552 30.7998 60.599C30.7998 63.1428 31.0206 65.199 33.5598 65.199H69.4398C71.979 65.199 72.1998 63.1428 72.1998 60.599C72.1998 58.0552 71.979 55.999 69.4398 55.999ZM33.5598 19.199H69.4398C71.979 19.199 72.1998 17.1428 72.1998 14.599C72.1998 12.0552 71.979 9.99902 69.4398 9.99902H33.5598C31.0206 9.99902 30.7998 12.0552 30.7998 14.599C30.7998 17.1428 31.0206 19.199 33.5598 19.199ZM18.8398 32.999H10.5598C8.0206 32.999 7.7998 35.0552 7.7998 37.599C7.7998 40.1428 8.0206 42.199 10.5598 42.199H18.8398C21.379 42.199 21.5998 40.1428 21.5998 37.599C21.5998 35.0552 21.379 32.999 18.8398 32.999ZM18.8398 55.999H10.5598C8.0206 55.999 7.7998 58.0552 7.7998 60.599C7.7998 63.1428 8.0206 65.199 10.5598 65.199H18.8398C21.379 65.199 21.5998 63.1428 21.5998 60.599C21.5998 58.0552 21.379 55.999 18.8398 55.999ZM18.8398 9.99902H10.5598C8.0206 9.99902 7.7998 12.0552 7.7998 14.599C7.7998 17.1428 8.0206 19.199 10.5598 19.199H18.8398C21.379 19.199 21.5998 17.1428 21.5998 14.599C21.5998 12.0552 21.379 9.99902 18.8398 9.99902Z" fill="url(#paint0_linear_47_14)"/>
</g>
<defs>
<linearGradient id="paint0_linear_47_14" x1="39.9998" y1="9.99902" x2="39.9998" y2="65.199" gradientUnits="userSpaceOnUse">
<stop stop-color="#5FC9F3"/>
<stop offset="1" stop-color="#55ABF5"/>
</linearGradient>
</defs>
</svg>
