<svg width="102" height="102" viewBox="0 0 102 102" fill="none" xmlns="http://www.w3.org/2000/svg">
<g id="entypo-social:vk-with-circle">
<path id="Vector" d="M51.0002 2.03955C23.96 2.03955 2.04016 23.9594 2.04016 50.9996C2.04016 78.0397 23.96 99.9596 51.0002 99.9596C78.0404 99.9596 99.9602 78.0397 99.9602 50.9996C99.9602 23.9594 78.0404 2.03955 51.0002 2.03955ZM69.8294 57.2777C69.8294 57.2777 74.1593 61.5515 75.2252 63.5354C75.2558 63.5762 75.2711 63.617 75.2813 63.6373C75.7148 64.3666 75.8168 64.9328 75.6026 65.356C75.2456 66.0599 74.0216 66.4067 73.6034 66.4373H65.9534C65.423 66.4373 64.3112 66.2996 62.9648 65.3713C61.9295 64.6472 60.9095 63.4589 59.915 62.3012C58.4309 60.5774 57.1457 59.0882 55.8503 59.0882C55.6857 59.0879 55.5222 59.1137 55.3658 59.1646C54.3866 59.4809 53.132 60.8783 53.132 64.6012C53.132 65.764 52.214 66.4322 51.5663 66.4322H48.0626C46.8692 66.4322 40.6523 66.014 35.1443 60.2051C28.4021 53.0906 22.3331 38.8208 22.2821 38.6881C21.8996 37.765 22.6901 37.2704 23.552 37.2704H31.2785C32.3087 37.2704 32.6453 37.8976 32.8799 38.4535C33.1553 39.1012 34.1651 41.6768 35.8226 44.5736C38.5103 49.2962 40.1576 51.2138 41.4785 51.2138C41.7261 51.2108 41.9694 51.1478 42.1874 51.0302C43.9112 50.0714 43.5899 43.9258 43.5134 42.6508C43.5134 42.4111 43.5083 39.9019 42.626 38.6983C41.9936 37.8262 40.9175 37.4948 40.2647 37.3723C40.5289 37.0078 40.877 36.7121 41.2796 36.5104C42.4628 35.9188 44.5946 35.8321 46.7111 35.8321H47.8892C50.1842 35.8628 50.7758 36.0107 51.6071 36.2197C53.2901 36.6227 53.3258 37.709 53.1779 41.4268C53.132 42.4826 53.0861 43.676 53.0861 45.0836C53.0861 45.3896 53.0708 45.716 53.0708 46.0627C53.0198 47.9548 52.9586 50.102 54.2948 50.9842C54.469 51.0935 54.6705 51.1518 54.8762 51.1525C55.3403 51.1525 56.7377 51.1526 60.5219 44.6603C61.6889 42.5706 62.7031 40.3991 63.5564 38.1628C63.6329 38.0302 63.8573 37.6222 64.1225 37.4641C64.3182 37.3644 64.5352 37.3136 64.7549 37.3162H73.838C74.8274 37.3162 75.5057 37.4641 75.6332 37.8466C75.8576 38.4535 75.5924 40.3049 71.4461 45.9199L69.5948 48.3629C65.8361 53.2895 65.8361 53.5394 69.8294 57.2777Z" fill="url(#paint0_linear_15_373)"/>
</g>
<defs>
<linearGradient id="paint0_linear_15_373" x1="51.0002" y1="2.03955" x2="51.0002" y2="99.9596" gradientUnits="userSpaceOnUse">
<stop stop-color="#5FC9F3"/>
<stop offset="1" stop-color="#55ABF5"/>
</linearGradient>
</defs>
</svg>
