<svg width="102" height="102" viewBox="0 0 102 102" fill="none" xmlns="http://www.w3.org/2000/svg">
<g id="fa-brands:forumbee" clip-path="url(#clip0_15_404)">
<path id="Vector" d="M1.32054 62.2367C0.455357 58.3852 0 54.4883 0 50.5914C0 22.6562 22.7223 0 50.7951 0C54.5746 0 58.3768 0.453125 62.0196 1.24609C33.9241 11.8945 11.8165 34.2109 1.32054 62.2367ZM90.7754 19.3711C87.6562 15.4062 84.0134 11.9625 79.8924 9.10781C45.8317 19.1445 19.2616 45.8336 9.38036 79.7953C12.2263 83.8961 15.7554 87.8609 19.6714 90.8969C29.4844 56.618 56.3732 29.3398 90.7754 19.3711ZM94.3728 76.6234C97.8335 70.9367 100.156 64.457 101.089 57.8641C83.0116 67.5836 68.0759 82.9219 58.3768 100.979C65.2071 99.982 71.787 97.5125 77.6384 93.8875C85.6071 96.8555 93.7808 99.393 102 101.5C99.8826 93.2305 97.3554 84.6211 94.3728 76.6234ZM101.135 43.6586C100.543 39.2406 99.3362 34.8906 97.5375 30.7898C66.1406 41.1664 41.4375 66.2695 31.2147 97.6484C35.3357 99.3703 39.6388 100.48 44.1013 101.092C54.6429 75.2414 75.2478 54.2391 101.135 43.6586Z" fill="url(#paint0_linear_15_404)"/>
</g>
<defs>
<linearGradient id="paint0_linear_15_404" x1="51" y1="0" x2="51" y2="101.5" gradientUnits="userSpaceOnUse">
<stop stop-color="#5FC9F3"/>
<stop offset="1" stop-color="#55ABF5"/>
</linearGradient>
<clipPath id="clip0_15_404">
<rect width="102" height="102" fill="white"/>
</clipPath>
</defs>
</svg>
