<svg width="80" height="80" viewBox="0 0 80 80" fill="none" xmlns="http://www.w3.org/2000/svg">
<g id="fa-solid:water">
<path id="Vector" d="M68.5521 53.4892C66.3125 53.2361 64.1667 52.3818 62.5208 51.074C61.0521 49.9033 58.9583 49.8822 57.5 51.074C53.5521 54.2803 46.3333 54.2803 42.3229 50.9158C40.9167 49.7345 38.8854 49.956 37.4583 51.1056C33.5 54.2803 26.3229 54.2697 22.3333 50.9263C20.9271 49.7451 18.8646 49.9877 17.4271 51.1373C15.8125 52.424 13.6771 53.2572 11.4167 53.4998C10.5938 53.5842 10 54.3224 10 55.1556V58.5517C10 59.5115 10.7917 60.3236 11.7396 60.2392C14.7396 59.9756 17.5833 59.0369 20.0104 57.5076C25.8958 61.1568 34.2812 61.1041 40.0104 57.5076C45.8958 61.1568 54.2812 61.1041 60.0104 57.5076C62.4375 59.0053 65.3125 59.965 68.25 60.2287C69.1979 60.3131 69.9896 59.501 69.9896 58.5412V55.2084C70 54.3646 69.3958 53.5842 68.5521 53.4892ZM68.5521 38.3017C66.3125 38.0486 64.1667 37.1943 62.5208 35.8865C61.0521 34.7158 58.9583 34.6947 57.5 35.8865C53.5521 39.0928 46.3333 39.0928 42.3229 35.7283C40.9167 34.547 38.8854 34.7685 37.4583 35.9181C33.5 39.0928 26.3229 39.0822 22.3333 35.7388C20.9271 34.5576 18.8646 34.8002 17.4271 35.9498C15.8125 37.2365 13.6771 38.0697 11.4167 38.3123C10.5938 38.3967 10 39.1349 10 39.9681V43.3642C10 44.324 10.7917 45.1361 11.7396 45.0517C14.7396 44.7881 17.5833 43.8494 20.0104 42.3201C25.8958 45.9693 34.2812 45.9166 40.0104 42.3201C45.8958 45.9693 54.2812 45.9166 60.0104 42.3201C62.4375 43.8178 65.3125 44.7775 68.25 45.0412C69.1979 45.1256 69.9896 44.3135 69.9896 43.3537V40.0209C70 39.1771 69.3958 38.3967 68.5521 38.3017ZM68.5521 23.1142C66.3125 22.8506 64.1667 22.0068 62.5208 20.699C61.0521 19.5283 58.9583 19.5072 57.5 20.699C53.5521 23.9053 46.3333 23.9053 42.3229 20.5408C40.9167 19.3595 38.8854 19.581 37.4583 20.7306C33.5 23.9053 26.3229 23.8947 22.3333 20.5513C20.9271 19.3701 18.8646 19.6127 17.4271 20.7623C15.8125 22.049 13.6771 22.8822 11.4167 23.1248C10.5938 23.2092 10 23.9474 10 24.7806V28.1767C10 29.1365 10.7917 29.9486 11.7396 29.8642C14.7396 29.6006 17.5833 28.6619 20.0104 27.1326C25.8958 30.7818 34.2812 30.7291 40.0104 27.1326C45.8958 30.7818 54.2812 30.7291 60.0104 27.1326C62.4375 28.6303 65.3125 29.59 68.25 29.8537C69.1979 29.9381 69.9896 29.126 69.9896 28.1662V24.8334C70 23.9896 69.3958 23.2092 68.5521 23.1142Z" fill="url(#paint0_linear_47_40)"/>
</g>
<defs>
<linearGradient id="paint0_linear_47_40" x1="39.9949" y1="19.7549" x2="39.9949" y2="60.2453" gradientUnits="userSpaceOnUse">
<stop stop-color="#5FC9F3"/>
<stop offset="1" stop-color="#55ABF5"/>
</linearGradient>
</defs>
</svg>
