<svg width="76" height="60" viewBox="0 0 76 60" fill="none" xmlns="http://www.w3.org/2000/svg">
<g id="fa-solid:swimming-pool">
<path id="Vector" d="M74.1 49H72.2C69.1077 49 66.7612 48.0133 65.5393 46.9023C64.4824 45.9402 63.2047 45.25 61.7666 45.25H59.831C58.3929 45.25 57.1152 45.9402 56.0583 46.9023C54.8387 48.0133 52.4922 49 49.4 49C46.3078 49 43.9613 48.0133 42.7393 46.9023C41.6824 45.9402 40.4047 45.25 38.9666 45.25H37.031C35.5929 45.25 34.3152 45.9402 33.2583 46.9023C32.0387 48.0133 29.6922 49 26.6 49C23.5077 49 21.1613 48.0133 19.9393 46.9023C18.8824 45.9402 17.6047 45.25 16.1666 45.25H14.231C12.7929 45.25 11.5152 45.9402 10.4583 46.9023C9.23875 48.0133 6.89225 49 3.8 49H1.9C0.85025 49 0 49.8391 0 50.875V54.625C0 55.6609 0.85025 56.5 1.9 56.5H3.8C8.38612 56.5 12.4355 55.0715 15.2 52.7687C17.9645 55.0727 22.0139 56.5 26.6 56.5C31.1861 56.5 35.2355 55.0715 38 52.7687C40.7645 55.0727 44.8139 56.5 49.4 56.5C53.9861 56.5 58.0355 55.0715 60.8 52.7687C63.5645 55.0727 67.6139 56.5 72.2 56.5H74.1C75.1497 56.5 76 55.6609 76 54.625V50.875C76 49.8391 75.1497 49 74.1 49ZM26.6 45.25V34H49.4V45.25C51.6705 45.25 53.0646 44.5281 53.4838 44.1461C54.5728 43.1547 55.7638 42.4656 57 42.0285V15.25C57 13.1828 58.7052 11.5 60.8 11.5C62.8947 11.5 64.6 13.1828 64.6 15.25V17.125C64.6 18.1609 65.4502 19 66.5 19H70.3C71.3497 19 72.2 18.1609 72.2 17.125V15.25C72.2 9.04609 67.0866 4 60.8 4C54.5134 4 49.4 9.04609 49.4 15.25V26.5H26.6V15.25C26.6 13.1828 28.3053 11.5 30.4 11.5C32.4948 11.5 34.2 13.1828 34.2 15.25V17.125C34.2 18.1609 35.0503 19 36.1 19H39.9C40.9497 19 41.8 18.1609 41.8 17.125V15.25C41.8 9.04609 36.6866 4 30.4 4C24.1134 4 19 9.04609 19 15.25V42.0273C20.2362 42.4645 21.4272 43.1547 22.5162 44.1449C22.9354 44.5281 24.3295 45.25 26.6 45.25Z" fill="url(#paint0_linear_47_78)"/>
</g>
<defs>
<linearGradient id="paint0_linear_47_78" x1="38" y1="4" x2="38" y2="56.5" gradientUnits="userSpaceOnUse">
<stop stop-color="#5FC9F3"/>
<stop offset="1" stop-color="#55ABF5"/>
</linearGradient>
</defs>
</svg>
