<svg width="35" height="35" viewBox="0 0 35 35" fill="none" xmlns="http://www.w3.org/2000/svg">
<g id="icomoon-free:price-tag" clip-path="url(#clip0_46_383)">
<path id="Vector" d="M33.3585 0H20.2335C19.3323 0 18.0701 0.522812 17.4335 1.15937L1.16073 17.4322C0.853899 17.7405 0.681641 18.1577 0.681641 18.5927C0.681641 19.0276 0.853899 19.4449 1.16073 19.7531L15.246 33.8384C15.5543 34.1453 15.9716 34.3175 16.4065 34.3175C16.8415 34.3175 17.2587 34.1453 17.567 33.8384L33.8398 17.5656C34.4785 16.9269 34.9992 15.6669 34.9992 14.7656V1.64062C34.9974 1.20604 34.824 0.78974 34.5167 0.482437C34.2094 0.175134 33.7931 0.00172801 33.3585 0V0ZM25.1554 13.125C24.7244 13.1249 24.2976 13.0398 23.8994 12.8747C23.5012 12.7096 23.1395 12.4677 22.8348 12.1629C22.5301 11.858 22.2884 11.496 22.1236 11.0977C21.9588 10.6995 21.874 10.2726 21.8742 9.84156C21.8743 9.41052 21.9594 8.98372 22.1244 8.58555C22.2895 8.18737 22.5314 7.82561 22.8363 7.52092C23.1412 7.21622 23.5031 6.97457 23.9014 6.80975C24.2997 6.64493 24.7266 6.56017 25.1576 6.56031C26.0281 6.5606 26.8629 6.9067 27.4783 7.52246C28.0936 8.13823 28.4391 8.97322 28.4389 9.84375C28.4386 10.7143 28.0925 11.549 27.4767 12.1644C26.8609 12.7798 26.026 13.1253 25.1554 13.125Z" fill="url(#paint0_linear_46_383)"/>
</g>
<defs>
<linearGradient id="paint0_linear_46_383" x1="17.8404" y1="0" x2="17.8404" y2="34.3175" gradientUnits="userSpaceOnUse">
<stop stop-color="#5FC9F3"/>
<stop offset="1" stop-color="#55ABF5"/>
</linearGradient>
<clipPath id="clip0_46_383">
<rect width="35" height="35" fill="white"/>
</clipPath>
</defs>
</svg>
