<svg width="31" height="32" viewBox="0 0 31 32" fill="none" xmlns="http://www.w3.org/2000/svg">
<rect opacity="0.3" width="31" height="32" rx="7" fill="black"/>
<path d="M22.9 9.21667C22.0667 9.03333 21.45 8.04167 20.6417 7.86667C19.8334 7.69167 18.8334 8.325 18.0167 8.14167C17.5871 7.99053 17.129 7.93753 16.6762 7.98656C16.2234 8.03559 15.7874 8.1854 15.4 8.425L15.3417 20.3333L15.1667 21.1667C14.8667 22.5167 15.725 23.85 17.075 24.15C18.4167 24.4417 19.75 23.5917 20.05 22.2417L20.225 21.4083L25.1667 10.5667C24.9154 10.1851 24.5809 9.86535 24.1883 9.63154C23.7957 9.39773 23.3553 9.25589 22.9 9.21667ZM18.425 21.8833C18.325 22.3417 17.875 22.6333 17.4167 22.5417C16.95 22.4417 16.6584 22 16.7584 21.525L17.475 18.25C17.5182 18.0376 17.6424 17.8504 17.8214 17.728C18.0003 17.6057 18.2198 17.5579 18.4334 17.5948C18.647 17.6316 18.8378 17.7503 18.9654 17.9255C19.093 18.1007 19.1472 18.3187 19.1167 18.5333C19.1167 18.5667 19.1084 18.5917 19.1 18.625L18.425 21.8833ZM14.1 23.95C13.775 23.4417 13.5667 22.875 13.5 22.2833L12.8667 19.5C12.75 19.0583 13.0084 18.6 13.5 18.4667C13.5609 18.4583 13.6225 18.4583 13.6834 18.4667V9.025C12.925 9.025 12.0167 8.55 11.3167 8.71667C10.6167 8.88333 9.90837 9.86667 9.10004 10.05C8.17504 10.1333 7.34171 10.625 6.83337 11.4L11.775 22.2333L11.95 23.0667C12.0923 23.7138 12.4853 24.2781 13.043 24.6358C13.6007 24.9936 14.2775 25.1155 14.925 24.975H15.0084C14.65 24.6833 14.3334 24.3417 14.1 23.95Z" fill="white"/>
</svg>
